<mxfile host="app.diagrams.net" modified="2023-02-23T12:30:38.921Z" agent="5.0 (Macintosh; Intel Mac OS X 10_15_7) AppleWebKit/537.36 (KHTML, like Gecko) Chrome/109.0.0.0 Safari/537.36" etag="H2txvAtq0QSbKoFdGKZT" version="20.8.20" type="github">
  <diagram name="Page-1" id="74e2e168-ea6b-b213-b513-2b3c1d86103e">
    <mxGraphModel dx="954" dy="540" grid="1" gridSize="10" guides="1" tooltips="1" connect="1" arrows="1" fold="1" page="1" pageScale="1" pageWidth="1100" pageHeight="850" background="none" math="0" shadow="0">
      <root>
        <mxCell id="0" />
        <mxCell id="1" parent="0" />
        <mxCell id="q3uvph_pn61QIrT-p1wR-3" style="edgeStyle=orthogonalEdgeStyle;rounded=0;orthogonalLoop=1;jettySize=auto;html=1;fontSize=18;" edge="1" parent="1" source="q3uvph_pn61QIrT-p1wR-1">
          <mxGeometry relative="1" as="geometry">
            <mxPoint x="340" y="95" as="targetPoint" />
          </mxGeometry>
        </mxCell>
        <mxCell id="q3uvph_pn61QIrT-p1wR-1" value="&lt;font style=&quot;font-size: 18px;&quot;&gt;INÍCIO&lt;/font&gt;" style="strokeWidth=2;html=1;shape=mxgraph.flowchart.terminator;whiteSpace=wrap;" vertex="1" parent="1">
          <mxGeometry x="150" y="70" width="80" height="50" as="geometry" />
        </mxCell>
        <mxCell id="q3uvph_pn61QIrT-p1wR-2" value="&lt;font style=&quot;font-size: 18px;&quot;&gt;FIM&lt;/font&gt;" style="strokeWidth=2;html=1;shape=mxgraph.flowchart.terminator;whiteSpace=wrap;" vertex="1" parent="1">
          <mxGeometry x="150" y="301.5" width="80" height="50" as="geometry" />
        </mxCell>
        <mxCell id="q3uvph_pn61QIrT-p1wR-5" style="edgeStyle=orthogonalEdgeStyle;rounded=0;orthogonalLoop=1;jettySize=auto;html=1;fontSize=18;" edge="1" parent="1" source="q3uvph_pn61QIrT-p1wR-4" target="q3uvph_pn61QIrT-p1wR-18">
          <mxGeometry relative="1" as="geometry">
            <mxPoint x="850" y="70" as="targetPoint" />
          </mxGeometry>
        </mxCell>
        <mxCell id="q3uvph_pn61QIrT-p1wR-4" value="DECLARAR VALOR 1, VALOR 2 E SOMA COMO INTEIROS" style="rounded=1;whiteSpace=wrap;html=1;fontSize=18;" vertex="1" parent="1">
          <mxGeometry x="340" y="42.5" width="230" height="105" as="geometry" />
        </mxCell>
        <mxCell id="q3uvph_pn61QIrT-p1wR-20" style="edgeStyle=orthogonalEdgeStyle;rounded=0;orthogonalLoop=1;jettySize=auto;html=1;exitX=0.5;exitY=1;exitDx=0;exitDy=0;fontSize=18;" edge="1" parent="1" source="q3uvph_pn61QIrT-p1wR-6" target="q3uvph_pn61QIrT-p1wR-21">
          <mxGeometry relative="1" as="geometry">
            <mxPoint x="800" y="380" as="targetPoint" />
          </mxGeometry>
        </mxCell>
        <mxCell id="q3uvph_pn61QIrT-p1wR-6" value="LER VALOR 1" style="html=1;strokeWidth=2;shape=manualInput;whiteSpace=wrap;rounded=1;size=26;arcSize=11;fontSize=18;" vertex="1" parent="1">
          <mxGeometry x="730" y="200" width="140" height="85" as="geometry" />
        </mxCell>
        <mxCell id="q3uvph_pn61QIrT-p1wR-23" value="" style="edgeStyle=orthogonalEdgeStyle;rounded=0;orthogonalLoop=1;jettySize=auto;html=1;fontSize=18;" edge="1" parent="1" source="q3uvph_pn61QIrT-p1wR-11" target="q3uvph_pn61QIrT-p1wR-14">
          <mxGeometry relative="1" as="geometry" />
        </mxCell>
        <mxCell id="q3uvph_pn61QIrT-p1wR-11" value="LER VALOR 2" style="html=1;strokeWidth=2;shape=manualInput;whiteSpace=wrap;rounded=1;size=26;arcSize=11;fontSize=18;" vertex="1" parent="1">
          <mxGeometry x="590" y="472.5" width="140" height="85" as="geometry" />
        </mxCell>
        <mxCell id="q3uvph_pn61QIrT-p1wR-24" value="" style="edgeStyle=orthogonalEdgeStyle;rounded=0;orthogonalLoop=1;jettySize=auto;html=1;fontSize=18;" edge="1" parent="1" source="q3uvph_pn61QIrT-p1wR-14" target="q3uvph_pn61QIrT-p1wR-16">
          <mxGeometry relative="1" as="geometry" />
        </mxCell>
        <mxCell id="q3uvph_pn61QIrT-p1wR-14" value="SOMA VALOR 1 + VALOR 2" style="rounded=1;whiteSpace=wrap;html=1;fontSize=18;" vertex="1" parent="1">
          <mxGeometry x="330" y="462.5" width="230" height="105" as="geometry" />
        </mxCell>
        <mxCell id="q3uvph_pn61QIrT-p1wR-25" style="edgeStyle=orthogonalEdgeStyle;rounded=0;orthogonalLoop=1;jettySize=auto;html=1;entryX=1;entryY=0.5;entryDx=0;entryDy=0;entryPerimeter=0;fontSize=18;" edge="1" parent="1" source="q3uvph_pn61QIrT-p1wR-16" target="q3uvph_pn61QIrT-p1wR-2">
          <mxGeometry relative="1" as="geometry" />
        </mxCell>
        <mxCell id="q3uvph_pn61QIrT-p1wR-16" value="MOSTRA SOMA" style="strokeWidth=2;html=1;shape=mxgraph.flowchart.display;whiteSpace=wrap;fontSize=18;" vertex="1" parent="1">
          <mxGeometry x="365" y="280" width="160" height="93" as="geometry" />
        </mxCell>
        <mxCell id="q3uvph_pn61QIrT-p1wR-19" value="" style="edgeStyle=orthogonalEdgeStyle;rounded=0;orthogonalLoop=1;jettySize=auto;html=1;fontSize=18;" edge="1" parent="1" source="q3uvph_pn61QIrT-p1wR-18" target="q3uvph_pn61QIrT-p1wR-6">
          <mxGeometry relative="1" as="geometry" />
        </mxCell>
        <mxCell id="q3uvph_pn61QIrT-p1wR-18" value="INFORME O VALOR 1" style="strokeWidth=2;html=1;shape=mxgraph.flowchart.display;whiteSpace=wrap;fontSize=18;" vertex="1" parent="1">
          <mxGeometry x="700" y="45" width="200" height="100" as="geometry" />
        </mxCell>
        <mxCell id="q3uvph_pn61QIrT-p1wR-22" style="edgeStyle=orthogonalEdgeStyle;rounded=0;orthogonalLoop=1;jettySize=auto;html=1;entryX=1;entryY=0.75;entryDx=0;entryDy=0;fontSize=18;" edge="1" parent="1" source="q3uvph_pn61QIrT-p1wR-21" target="q3uvph_pn61QIrT-p1wR-11">
          <mxGeometry relative="1" as="geometry" />
        </mxCell>
        <mxCell id="q3uvph_pn61QIrT-p1wR-21" value="INFORME O VALOR 2" style="strokeWidth=2;html=1;shape=mxgraph.flowchart.display;whiteSpace=wrap;fontSize=18;" vertex="1" parent="1">
          <mxGeometry x="702.5" y="340" width="195" height="100" as="geometry" />
        </mxCell>
      </root>
    </mxGraphModel>
  </diagram>
</mxfile>
